<svg height="512" viewBox="0 0 48 60" width="512" xmlns="http://www.w3.org/2000/svg"><g id="032---Down-Arrow" fill="none"><g id="Icons" transform="translate(0 1)"><path id="Shape" d="m47 26.01c.0028387.9905119-.3645147 1.9463439-1.03 2.68-21.345 23.592-18.77 20.762-19.19 21.18-.3898586.3958725-.8654104.6969412-1.39.88-.4766503.1758243-.9820662.2606257-1.49.25-.8401478-.0144368-1.6534355-.2983864-2.32-.81-.5-.394 1.154 1.384-19.55-21.5-1.48288455-1.6402857-1.35528571-4.1721154.285-5.655s4.17211545-1.3552857 5.655.285l12.03 13.3v-32.62c0-2.209139 1.790861-4 4-4s4 1.790861 4 4v32.62l12.03-13.3c1.1144568-1.2194198 2.8626779-1.6306121 4.4038501-1.0358124 1.5411723.5947996 2.5598712 2.0738563 2.5661499 3.7258124z" fill="#e8edfc"/><path id="Shape" d="m41.479 22.3c1.2175551.4814477 2.121531 1.5294698 2.4190398 2.8045074.2975088 1.2750375-.0492923 2.6149077-.9280398 3.5854926-21.345 23.592-18.77 20.762-19.19 21.18-.3650553.3617386-.8008001.6442918-1.28.83.4399859.1985329.917297.3008138 1.4.3.5079338.0106257 1.0133497-.0741757 1.49-.25.5245896-.1830588 1.0001414-.4841275 1.39-.88.418-.418-2.155 2.412 19.19-21.18.6654853-.7336561 1.0328387-1.6894881 1.03-2.68-.0049124-1.3326242-.6703951-2.5760646-1.7764931-3.3193401-1.1060981-.7432755-2.508808-.8896185-3.7445069-.3906599z" fill="#cad9fc"/><path id="Shape" d="m47.0000163 26.01-.0000163 6.99c.0012004.9931992-.3657688 1.9515943-1.03 2.69-19.151 21.166-19.177 21.218-19.36 21.34-1.152956 1.0108799-2.7878441 1.2606002-4.19.64-1.088-.408-.268.26-20.39-21.98-.6642312-.7384057-1.03120035-1.6968008-1.03-2.69l-.00001633-6.99c-.00282233.9905119.364531 1.9463439 1.03001633 2.68 20.621 22.791 19.237 21.44 20.16 21.87.7698433.406189 1.6544223.5401093 2.51.38.7381604-.1304729 1.4244858-.466703 1.98-.97.172-.129 6.042-6.638 19.29-21.28.6654853-.7336561 1.0328387-1.6894881 1.0300163-2.68z" fill="#a4c2f7"/><path id="Shape" d="m45.97 28.69-1.97 2.178v2.132c.0012004.9931992-.3657688 1.9515943-1.03 2.69-19.15 21.166-19.177 21.218-19.36 21.34-.3295928.2866489-.707912.5118792-1.117.665.4092151.1712363.8442468.2726423 1.287.3 1.0322388.0474555 2.0439128-.299302 2.83-.97.183-.122.21-.174 19.36-21.34.6630772-.7371244 1.0299644-1.6935244 1.03-2.685l.0000163-6.99c.0028224.9905119-.364531 1.9463439-1.0300163 2.68z" fill="#7facfa"/></g><path id="Shape" d="m0 4.01v6.99c-.00120036.9931992.3657688 1.9515943 1.03 2.69 21.67 23.947 18.956 21.181 20.47 22.018h-.005c.092.046.48.156.6.19.5283119.1230777 1.0762281.1366905 1.61.04.2719076-.0436473.5368632-.1229995.788-.236-.2509208-.1090139-.4912691-.2409041-.718-.394-.2687973-.1626686-.5115265-.3649429-.72-.6 0-.1-4.687-5.178-19.02-21.02-.66558454-.7371488-1.03433377-1.694828-1.035-2.688v-6.99c-.00499729-1.62952891.98628563-3.09662762 2.5-3.7-1.23160451-.50247687-2.63257779-.35850291-3.73624315.38396288s-1.76501852 1.98587506-1.76375685 3.31603712z" fill="#fff" transform="translate(1 23)"/><path id="Rectangle-path" d="m3.714 35.656h2v8h-2z" fill="#fff" transform="matrix(.742 -.671 .671 .742 -25.388 13.412)"/><g fill="#428dff"><path id="Shape" d="m4.043 38.915c-.29994594.271426-.40682049.696827-.27077536 1.077788.13604512.3809611.4882096.6424345.89223736.6624642.40402776.0200298.78032702-.20533.95338482-.5709673.17305779-.3656373.10878245-.7995231-.16284682-1.0992849-.37066974-.4090599-1.00268886-.4403923-1.412-.07z"/><path id="Shape" d="m0 34c-.00014153 1.2391459.45748281 2.4346672 1.285 3.357.23707852.2713285.60179161.3941377.95470168.3214749.35291006-.0726628.6394429-.329561.75005089-.6724768.11060799-.3429159.02818666-.7188207-.21575257-.9839981-.49854298-.5554766-.77420202-1.2756091-.774-2.022v-2.853l18.322 20.253c.8934187.948242 2.1146066 1.5203945 3.415 1.6.0513858.0022532.1028686.0005817.154-.005 1.4516947.0426486 2.8486907-.5552803 3.82-1.635l18.289-20.213v2.853c.0003813.7449785-.2741543 1.4638987-.771 2.019-26.329 29.095-17.317 19.037-19.236 21.225-1.2347627 1.0839231-3.1088623.9844919-4.222-.224l-13.632-15.069c-.37058307-.4095191-1.00298086-.4410831-1.4125-.0705s-.44108307 1.0029809-.0705 1.4125l13.632 15.068.007-.006c.9503228 1.0433294 2.2959184 1.6384544 3.7071761 1.639596 1.4112577.0011417 2.7578143-.5918055 3.7098239-1.633596l19-21c.8295276-.9229134 1.2883045-2.1200789 1.288-3.361 0-8.41.007-6.785-.015-7.063-.0305489-2.0521078-1.3120109-3.8771447-3.231816-4.6026986-1.919805-.725554-4.0880194-.2042568-5.468184 1.3146986l-10.285 11.375v-30.024c0-2.76142375-2.2385763-5-5-5s-5 2.23857625-5 5v30.024l-10.29-11.377c-1.38107049-1.5154697-3.54738686-2.0341779-5.46506677-1.3085693-1.91767992.7256086-3.19800411 2.5484511-3.22993323 4.5985693-.015.263-.015-1.258-.015 7.063zm2.992-9.219c1.23031901-1.1044757 3.12095408-1.0107473 4.236.21l12.03 13.3c.277417.3070459.7152939.411508 1.1014459.2627663.3861519-.1487416.6408025-.519958.6405541-.9337663v-32.62c0-1.65685425 1.3431458-3 3-3s3 1.34314575 3 3v32.62c-.0002484.4138083.2544022.7850247.6405541.9337663.386152.1487417.8240289.0442796 1.1014459-.2627663l12.027-13.291c.8155773-.8973179 2.0900682-1.2174129 3.2328466-.8119461 1.1427783.4054668 1.930514 1.457256 1.9981534 2.6679461.0437531.7947208-.2328748 1.5738172-.768 2.163l-19.022 21.02c-.5726148.6200642-1.3793939.9710295-2.2234039.9672259-.84401-.0038035-1.6475931-.362026-2.2145961-.9872259l-19-21c-.53300948-.5910792-.80929157-1.3697393-.76803039-2.1645797s.39668345-1.5407079.98803039-2.0734203z"/></g></g></svg>